<svg data-v-423bf9ae="" xmlns="http://www.w3.org/2000/svg" viewBox="0 0 411.26579393685626 60" class="font"><!----><!----><!----><g data-v-423bf9ae="" id="41250ad3-6a92-4dd0-a2c2-86e339bec616" fill="black" transform="matrix(5.424954586220476,0,0,5.424954586220476,-3.3634746287311543,-16.708860188505035)"><path d="M3.95 6.58C2.23 6.58 1.01 7.56 0.91 9.02L1.90 9.02C1.96 8.18 2.76 7.49 3.91 7.49C5.19 7.49 5.95 8.16 5.95 9.67L5.95 9.94L3.68 9.93C1.76 9.93 0.62 10.79 0.62 12.01C0.62 13.27 1.67 14.14 3.01 14.14C4.30 14.14 5.32 13.55 6.08 12.96L6.29 14L6.97 14L6.97 9.67C6.97 7.70 5.88 6.58 3.95 6.58ZM1.65 12.00C1.65 11.19 2.37 10.79 3.70 10.79L5.95 10.79L5.95 12.11C5.19 12.70 4.24 13.22 3.22 13.22C2.37 13.22 1.65 12.78 1.65 12.00ZM14.70 6.72L14.70 12.18C13.76 12.82 12.81 13.22 11.98 13.22C10.89 13.22 10.29 12.60 10.29 11.42L10.29 6.72L9.24 6.72L9.24 11.47C9.24 13.22 10.18 14.14 11.72 14.14C12.80 14.14 13.75 13.78 14.83 13.06L15.01 14L15.75 14L15.75 6.72ZM17.30 7.62L18.44 7.62L18.44 12.00C18.44 13.57 19.31 14.14 20.43 14.14C21.17 14.14 21.87 13.99 22.44 13.73L22.33 12.84C21.81 13.06 21.22 13.22 20.58 13.22C19.89 13.22 19.47 12.85 19.47 11.98L19.47 7.62L22.40 7.62L22.40 6.72L19.47 6.72L19.47 4.65L18.47 4.91L18.47 6.72L17.30 6.72ZM28.08 6.58C27.01 6.58 26.00 6.99 24.91 7.74L24.91 3.08L23.91 3.08L23.91 14L24.95 14L24.95 8.65C25.94 7.98 26.99 7.50 27.87 7.50C28.94 7.50 29.57 8.12 29.57 9.30L29.57 14L30.60 14L30.60 9.25C30.60 7.50 29.67 6.58 28.08 6.58ZM36.46 6.58C35.69 6.58 34.82 6.97 33.88 7.76L33.70 6.72L32.96 6.72L32.96 14L33.99 14L33.99 8.75C34.90 7.98 35.64 7.59 36.26 7.59C36.58 7.59 36.86 7.64 37.10 7.73L37.23 6.71C37.02 6.64 36.76 6.58 36.46 6.58ZM38.11 10.33C38.11 12.45 39.69 14.14 41.92 14.14C44.13 14.14 45.71 12.45 45.71 10.33C45.71 8.25 44.13 6.58 41.92 6.58C39.69 6.58 38.11 8.25 38.11 10.33ZM39.14 10.36C39.14 8.76 40.29 7.49 41.92 7.49C43.53 7.49 44.66 8.76 44.66 10.36C44.66 11.94 43.53 13.23 41.92 13.23C40.29 13.23 39.14 11.94 39.14 10.36ZM53.16 9.30L54.17 9.30C54.05 7.94 52.74 6.58 50.81 6.58C48.65 6.58 47.08 8.20 47.08 10.33C47.08 12.47 48.65 14.14 50.83 14.14C52.57 14.14 53.98 13.03 54.14 11.54L53.13 11.54C52.95 12.57 52.01 13.23 50.81 13.23C49.35 13.23 48.15 12.07 48.15 10.36C48.15 8.69 49.31 7.49 50.83 7.49C52.15 7.49 53.06 8.44 53.16 9.30ZM61.36 14L62.61 14L59.32 9.83L62.30 6.72L61.04 6.72L57.02 10.93L57.02 3.08L55.99 3.08L55.99 14L57.02 14L57.02 12.24L58.62 10.56ZM66.93 6.58C64.89 6.58 63.31 8.19 63.31 10.33C63.31 12.50 64.85 14.14 66.95 14.14C68.61 14.14 69.87 13.06 70.11 11.76L69.12 11.76C68.91 12.66 68.05 13.23 66.95 13.23C65.51 13.23 64.44 12.15 64.33 10.63L70.15 10.63L70.25 10.54C70.43 8.41 68.95 6.58 66.93 6.58ZM64.37 9.74C64.62 8.39 65.69 7.48 66.92 7.48C68.21 7.48 69.10 8.48 69.24 9.76ZM71.29 7.62L72.42 7.62L72.42 12.00C72.42 13.57 73.29 14.14 74.41 14.14C75.15 14.14 75.85 13.99 76.43 13.73L76.31 12.84C75.80 13.06 75.21 13.22 74.56 13.22C73.88 13.22 73.46 12.85 73.46 11.98L73.46 7.62L76.38 7.62L76.38 6.72L73.46 6.72L73.46 4.65L72.45 4.91L72.45 6.72L71.29 6.72Z"></path></g><!----><!----></svg>